HIERARCHY
ROOT pelvis
{
  OFFSET 0 100 0
  CHANNELS 6 Xposition Yposition Zposition Zrotation Xrotation Yrotation
  JOINT pelvis_right_femur
  {
    OFFSET -10.78128 -3.44521 -0.5502486
    CHANNELS 3 Zrotation Xrotation Yrotation
    JOINT right_femur_tibia
    {
      OFFSET -0.8047443 -44.0398 -0.1307829
      CHANNELS 3 Zrotation Xrotation Yrotation
      JOINT right_tibia_foot
      {
        OFFSET 3.006224 -47.83518 -5
        CHANNELS 3 Zrotation Xrotation Yrotation
        End Site
        {
          OFFSET 0 -5 15
        }
      }
    }
  }
  JOINT pelvis_left_femur
  {
    OFFSET 10.78128 -3.44521 -0.5502486
    CHANNELS 3 Zrotation Xrotation Yrotation
    JOINT left_femur_tibia
    {
      OFFSET 0.8047443 -44.0398 -0.1307829
      CHANNELS 3 Zrotation Xrotation Yrotation
      JOINT left_tibia_foot
      {
        OFFSET -4.370144 -48.10324 -4.275266
        CHANNELS 3 Zrotation Xrotation Yrotation
        End Site
        {
          OFFSET 0 -5 15
        }
      }
    }
  }
  JOINT pelvis_spine1
  {
    OFFSET 0 6.468898 -3.129235
    CHANNELS 3 Zrotation Xrotation Yrotation
    JOINT spine1
    {
      OFFSET 0 23.15396 4.99043
      CHANNELS 3 Zrotation Xrotation Yrotation
      JOINT spine2
      {
        OFFSET 0 20.79997 -5.064912
        CHANNELS 3 Zrotation Xrotation Yrotation
        JOINT neck
        {
          OFFSET 0 14.38658 9.616178
          CHANNELS 3 Zrotation Xrotation Yrotation
          End Site
          {
            OFFSET 0 20 0
          }
        }
      }
      JOINT right_manubrium
      {
        OFFSET -5.722621 16.35077 3.967754
        CHANNELS 3 Zrotation Xrotation Yrotation
        JOINT right_clavicle
        {
          OFFSET -13.16364 1.694482 -4.693211
          CHANNELS 3 Zrotation Xrotation Yrotation
          JOINT right_humerus
          {
            OFFSET -28.5034 -0.3100689 -2.792744
            CHANNELS 3 Zrotation Xrotation Yrotation
            JOINT right_radius
            {
              OFFSET -25.15693 0.02248979 -1.271978
              CHANNELS 3 Zrotation Xrotation Yrotation
              End Site
              {
                OFFSET -15 0 0
              }
            }
          }
        }
      }
      JOINT left_manubrium
      {
        OFFSET 5.722621 16.35077 3.967754
        CHANNELS 3 Zrotation Xrotation Yrotation
        JOINT left_clavicle
        {
          OFFSET 13.16364 1.694482 -4.693211
          CHANNELS 3 Zrotation Xrotation Yrotation
          JOINT left_humerus
          {
            OFFSET 29.39168 -1.063119 -2.237045
            CHANNELS 3 Zrotation Xrotation Yrotation
            JOINT left_radius
            {
              OFFSET 24.59957 -0.9528479 0.9047498
              CHANNELS 3 Zrotation Xrotation Yrotation
              End Site
              {
                OFFSET 15 -0 -0
              }
            }
          }
        }
      }
    }
  }
}
MOTION
Frames: 17
Frame Time: 0.0416666666667
0 103.5113 0 2.162879 -2.5328 0.1099995 1.705164 -11.58687 8.301601 -0 38.26389 -0 -4.974397 -17.76025 -3.790861 -7.680124 11.42843 -23.71822 -0 4.90691 -0 8.238441 -15.303 26.32297 -2.893501 -3.427118 4.917313 2.70994 9.316757 -7.333274 1.305531 22.07513 6.503316 2.537033 -26.48876 10.06317 6.111963 -19.65094 10.91992 85.04568 35.54088 -18.76285 -0 0 16.01695 -5.557926 6.590912 4.163901 5.860111 -20.30045 -1.198525 -95.61398 27.26784 24.60273 0 0 -14.46889 10.1584 17.75546 2.678249
0.3179976 103.5498 1.404789 1.774691 -1.418389 0.1004109 2.350782 -13.86883 8.854052 -0 37.89968 -0 -4.730092 -17.87805 -3.674363 -7.556383 11.22532 -23.96399 -0 4.707771 -0 7.644494 -16.46579 26.33904 -2.881837 -3.375053 4.943224 2.675985 9.384988 -7.346789 1.269443 22.0542 6.479584 2.57117 -26.35318 9.904237 6.098658 -19.64022 10.95548 85.07374 35.53374 -18.7527 -0 0 15.94808 -5.880094 6.68412 4.356941 5.825415 -20.3567 -1.244507 -95.48324 27.24683 24.52352 0 0 -14.5884 9.894233 17.54361 2.990428
0.5833187 103.4565 3.059226 0.9006605 -0.4445319 0.143498 3.437893 -18.61325 7.672149 -0 34.65495 -0 -5.783337 -15.37432 -3.00319 -6.977403 11.54593 -23.12869 -0 4.8843 -0 5.7814 -18.9951 25.12336 -2.496723 -3.052797 4.749285 2.781479 9.744113 -7.736154 1.138276 21.44327 6.866982 3.073704 -26.58236 9.681642 6.183466 -19.39071 11.23612 86.18361 35.33433 -20.39886 -0 0 14.95766 -6.288758 6.985412 4.545079 6.078874 -20.98074 -1.670475 -94.69303 27.06183 23.68755 0 0 -16.96168 9.302268 16.14259 4.108194
0.8240292 103.3131 4.814877 0.3199995 0.7414684 0.2614722 4.309266 -22.10625 7.782514 -0 32.84471 -0 -5.845063 -14.36672 -2.733003 -6.657567 11.53773 -22.7472 -0 4.664541 -0 4.75914 -20.5952 24.3952 -2.349486 -2.909353 4.702988 2.839669 9.88911 -7.871319 1.085791 21.19227 6.999275 3.234403 -26.61905 9.584345 6.184192 -19.27461 11.35661 86.51962 35.30533 -20.83585 -0 0 14.5624 -6.57091 7.256792 4.688041 6.18153 -21.20707 -1.744355 -94.22466 26.59347 23.17983 0 0 -17.72383 9.378116 15.50198 4.091902
1.059093 102.9989 6.905898 -0.1046103 1.496013 0.4423438 4.957013 -25.60601 6.94438 -0 29.22325 -0 -6.252515 -12.29832 -2.260298 -6.432274 11.94966 -21.59159 -0 4.822663 -0 4.666912 -21.72964 23.49103 -2.135688 -2.774819 4.542269 2.904921 10.03467 -8.109733 1.020237 20.83517 7.264042 3.545617 -26.83233 9.526449 6.216158 -19.13467 11.4795 87.22763 35.16332 -21.92895 -0 0 13.98586 -6.697379 7.336327 4.737574 6.38509 -21.59822 -2.033411 -93.8324 26.74207 22.73386 0 0 -19.3288 8.963569 14.78644 4.903522
1.295646 102.5488 9.3448 -0.4570841 2.42166 0.6932663 5.576437 -28.91661 6.445362 -0 25.61845 -0 -6.341429 -10.54237 -1.876724 -6.293657 12.35256 -20.51845 -0 5.031006 -0 4.755113 -22.64862 22.64348 -1.979116 -2.661371 4.440645 2.963294 10.14701 -8.278183 0.9684758 20.5583 7.448672 3.756453 -26.94845 9.468159 6.213737 -19.01559 11.57876 87.69576 35.09044 -22.60984 -0 0 13.54157 -6.897251 7.50458 4.835752 6.540591 -21.88462 -2.191505 -93.41839 26.59047 22.26533 0 0 -20.44104 8.842751 14.1766 5.227191
1.536709 101.9537 12.22927 -0.7167168 3.207568 1.015133 6.092604 -31.81339 5.820912 -0 21.68361 -0 -6.437945 -8.565501 -1.499628 -6.228352 12.93178 -19.29999 -0 5.737198 -0 5.145545 -23.16445 21.79011 -1.819341 -2.568343 4.317577 3.012185 10.23493 -8.453464 0.9169795 20.27716 7.659521 3.992753 -27.09495 9.428573 6.208113 -18.90158 11.66148 88.21363 34.99847 -23.38959 -0 0 13.09682 -7.066109 7.617832 4.916655 6.725675 -22.19682 -2.386522 -93.05676 26.6285 21.84606 0 0 -21.70411 8.595037 13.60527 5.759158
1.783285 101.2698 15.62434 -0.9921957 3.985067 1.425449 6.677225 -34.29069 5.428696 -0 18.07275 -0 -6.501037 -6.565764 -1.201002 -6.147925 13.56626 -18.13915 -0 7.046376 -0 5.346583 -23.34323 20.81196 -1.685271 -2.480609 4.218201 3.054699 10.31468 -8.602116 0.8685269 20.03195 7.832707 4.187363 -27.18467 9.374455 6.186775 -18.79257 11.73582 88.63945 34.93348 -24.00301 -0 0 12.69669 -7.29774 7.777229 5.034918 6.885204 -22.47123 -2.535291 -92.67314 26.55054 21.40549 0 0 -22.77422 8.438291 13.0668 6.124672
2.035736 100.5776 19.59505 -1.335641 4.60289 1.929218 7.380101 -35.98211 5.292297 -0 15.29138 -0 -6.679383 -4.564893 -0.9962592 -5.97648 14.19966 -17.07601 -0 9.314637 -0 5.078464 -22.97642 19.59063 -1.571079 -2.403319 4.131772 3.082767 10.38338 -8.730202 0.8224328 19.82307 7.981082 4.357854 -27.23325 9.309397 6.159769 -18.69235 11.79745 89.01265 34.87774 -24.52832 -0 0 12.34109 -7.562553 7.940237 5.170785 7.025366 -22.72039 -2.669442 -92.31889 26.49469 20.99972 0 0 -23.72513 8.259716 12.58682 6.494661
2.297546 99.99953 24.18583 -1.812965 4.965004 2.514802 8.237324 -36.54292 5.464206 -0 13.85626 -0 -7.051845 -2.79151 -0.9025394 -5.617786 14.67777 -16.15474 -0 12.85693 -0 3.932959 -21.85611 17.93923 -1.488012 -2.327677 4.074526 3.090983 10.455 -8.82689 0.7780373 19.67373 8.076076 4.481154 -27.19661 9.208264 6.130121 -18.60159 11.85049 89.29241 34.83863 -24.88787 -0 0 12.04678 -7.903956 8.132971 5.346282 7.11369 -22.92107 -2.774817 -91.98674 26.40355 20.62976 0 0 -24.42811 8.072337 12.17125 6.817819
2.577615 99.68205 29.38797 -2.42652 4.934097 3.120861 9.155978 -35.59252 5.828409 -0 14.04693 -0 -7.658532 -1.612613 -0.9181073 -5.025362 14.76066 -15.33912 -0 17.96471 -0 1.769952 -19.73588 15.82228 -1.442564 -2.251368 4.056697 3.066628 10.53582 -8.881893 0.7350203 19.60715 8.101882 4.548538 -27.04541 9.054265 6.10596 -18.52666 11.8935 89.45893 34.81266 -25.05138 -0 0 11.83938 -8.342209 8.350085 5.568378 7.12697 -23.05692 -2.855983 -91.71385 26.32384 20.34572 0 0 -24.80642 7.81131 11.85 7.165148
2.888446 99.76283 35.11978 -3.065543 4.410029 3.619497 9.903914 -33.00833 6.08623 -0 15.495 -0 -8.427533 -1.3106 -1.03019 -4.268827 14.17203 -14.45233 -0 24.78567 -0 -1.06134 -16.57082 13.47163 -1.442403 -2.168469 4.093077 2.996647 10.63381 -8.881713 0.6925107 19.64572 8.040672 4.549579 -26.74258 8.826936 6.091337 -18.47413 11.92714 89.48047 34.8018 -24.96473 -0 0 11.74475 -8.922412 8.601883 5.858625 7.038673 -23.10788 -2.912207 -91.52236 26.27173 20.18635 0 0 -24.77205 7.42635 11.63782 7.583215
3.235945 100.3232 41.23186 -3.488575 3.35475 3.844261 10.20312 -29.04377 5.889463 -0 17.12931 -0 -9.19417 -1.790711 -1.218784 -3.558923 12.6854 -13.25409 -0 33.1902 -0 -3.684912 -12.754 11.39401 -1.491762 -2.076922 4.1946 2.869991 10.74576 -8.812477 0.6508797 19.79932 7.890273 4.485206 -26.27382 8.522478 6.083681 -18.45411 11.94999 89.32963 34.81404 -24.58666 -0 0 11.78702 -9.683038 8.894201 6.237967 6.837467 -23.05841 -2.944328 -91.43298 26.27675 20.19125 0 0 -24.29747 6.873616 11.54005 8.126103
3.605371 101.3623 47.53577 -3.44804 1.842914 3.684815 9.892605 -24.13137 5.119147 -0 17.77373 -0 -9.783704 -2.656717 -1.443754 -3.109098 10.10439 -11.68012 -0 42.64449 -0 -5.305467 -9.049511 10.04106 -1.590173 -1.97601 4.365939 2.68349 10.85821 -8.663986 0.6115234 20.05667 7.666469 4.367401 -25.65223 8.15563 6.069581 -18.47578 11.9612 88.98653 34.86667 -23.88919 -0 0 11.97467 -10.66121 9.240273 6.731352 6.531055 -22.90159 -2.951084 -91.43824 26.3411 20.36948 0 0 -23.43542 6.151148 11.53212 8.808277
3.960443 102.7947 53.81951 -2.863547 0.1135949 3.175077 8.998478 -18.59092 4.030653 -0 16.91372 -0 -10.07533 -3.688622 -1.626636 -2.955987 6.164632 -9.999284 -0 52.02114 -0 -5.794888 -6.187246 9.574257 -1.73373 -1.866409 4.607945 2.441632 10.95122 -8.429142 0.5772027 20.39059 7.396369 4.212885 -24.91352 7.756007 6.028393 -18.54808 11.96093 88.43376 34.97923 -22.85039 -0 0 12.30724 -11.88399 9.654952 7.362049 6.140561 -22.63478 -2.927169 -91.51056 26.4341 20.7069 0 0 -22.2857 5.30327 11.5696 9.592648
4.260661 104.4318 59.87338 -1.851712 -1.53983 2.476946 7.695885 -12.61327 3.065552 -0 14.79833 -0 -10.0028 -4.92902 -1.682439 -2.93059 0.7241006 -8.59959 -0 59.53381 -0 -5.598817 -4.581444 9.964691 -1.917255 -1.75127 4.923499 2.152354 11.00438 -8.100879 0.5515614 20.76838 7.107823 4.035901 -24.10447 7.35855 5.937948 -18.68359 11.95015 87.64727 35.16004 -21.44228 -0 0 12.79242 -13.36194 10.1415 8.147133 5.691878 -22.25356 -2.862582 -91.6234 26.50166 21.19017 0 0 -20.94195 4.406031 11.60544 10.4013
4.482214 105.9715 65.56179 -0.6784446 -2.984132 1.780213 6.318424 -6.463903 2.539355 -0 12.12353 -0 -9.553506 -6.343946 -1.601013 -2.728268 -5.792409 -7.584164 -0 63.00156 -0 -5.223104 -4.257349 11.14927 -2.134408 -1.639512 5.318288 1.824381 10.99864 -7.672518 0.5382053 21.15625 6.825183 3.847303 -23.27994 6.99771 5.778733 -18.90116 11.92896 86.59917 35.39526 -19.63829 -0 0 13.45579 -15.07442 10.67511 9.089545 5.21541 -21.75305 -2.745131 -91.76863 26.48966 21.82416 0 0 -19.47641 3.547682 11.60295 11.14039
